<!DOCTYPE svg PUBLIC "-//W3C//DTD SVG 1.1//EN" "http://www.w3.org/Graphics/SVG/1.1/DTD/svg11.dtd">
<!-- Uploaded to: SVG Repo, www.svgrepo.com, Transformed by: SVG Repo Mixer Tools -->
<svg height="100px" width="100px" version="1.1" id="Layer_1" xmlns="http://www.w3.org/2000/svg" xmlns:xlink="http://www.w3.org/1999/xlink" viewBox="0 0 512 512" xml:space="preserve" fill="#000000" transform="rotate(270)">
<g id="SVGRepo_bgCarrier" stroke-width="0"/>
<g id="SVGRepo_tracerCarrier" stroke-linecap="round" stroke-linejoin="round" stroke="#CCCCCC" stroke-width="10.24"/>
<g id="SVGRepo_iconCarrier"> <g> <path style="fill:#B66D38;" d="M327.761,272.256c0-6.099-2.422-11.946-6.736-16.257L256,190.974 c-8.98-8.978-23.534-8.978-32.516-0.002L6.733,407.726c-8.977,8.977-8.977,23.533,0,32.513l65.025,65.027 c4.313,4.311,10.16,6.735,16.257,6.735c6.099,0,11.944-2.422,16.256-6.735l216.757-216.754 C325.338,284.202,327.761,278.353,327.761,272.256z"/> <path style="fill:#B66D38;" d="M451.078,125.949l-65.025-65.027c-8.977-8.977-23.534-8.977-32.513,0 c-8.98,8.977-8.98,23.534-0.003,32.513l65.028,65.027c8.977,8.977,23.534,8.977,32.513,0 C460.055,149.483,460.055,134.926,451.078,125.949z"/> </g> <g> <path style="fill:#AA3827;" d="M321.025,255.998l-32.513-32.511L39.246,472.753l32.513,32.513 c4.313,4.311,10.16,6.735,16.257,6.735c6.099,0,11.944-2.422,16.256-6.735l216.757-216.754c4.311-4.311,6.733-10.159,6.733-16.256 C327.761,266.158,325.338,260.311,321.025,255.998z"/> <path style="fill:#AA3827;" d="M451.078,158.461c8.977-8.978,8.977-23.534,0-32.513l-32.513-32.514l-32.513,32.514l32.513,32.513 C427.542,167.438,442.1,167.438,451.078,158.461z"/> </g> <path style="fill:#9ba7ab;" d="M446.974,174.719c0-6.099-2.422-11.946-6.736-16.257L288.509,6.733 C284.199,2.422,278.349,0,272.255,0c-6.099,0-11.944,2.423-16.257,6.733L147.623,115.11c-8.977,8.977-8.977,23.534,0,32.513 l151.725,151.727c4.314,4.313,10.16,6.733,16.257,6.733c6.097,0,11.944-2.422,16.254-6.733l108.377-108.377 C444.552,186.663,446.974,180.816,446.974,174.719z"/> <path style="fill:#898c90;" d="M505.266,223.487l-65.028-65.027c-8.977-8.978-23.531-8.978-32.513,0L299.348,266.838 c-8.977,8.978-8.977,23.534,0,32.513l65.025,65.027c4.313,4.313,10.16,6.735,16.257,6.735c6.097,0,11.947-2.422,16.257-6.733 l108.377-108.378C514.244,247.022,514.244,232.465,505.266,223.487z"/> </g>
</svg>